<mxfile host="app.diagrams.net" modified="2023-06-18T14:38:11.317Z" agent="Mozilla/5.0 (Windows NT 10.0; Win64; x64) AppleWebKit/537.36 (KHTML, like Gecko) Chrome/114.0.0.0 Safari/537.36" etag="rNBYxLf6uxhXH9yzjf-W" version="21.4.0" type="device">
  <diagram name="Página-1" id="A6x-f9Y-4f0eKWFaKeFF">
    <mxGraphModel dx="658" dy="454" grid="1" gridSize="10" guides="1" tooltips="1" connect="1" arrows="1" fold="1" page="1" pageScale="1" pageWidth="1169" pageHeight="827" math="0" shadow="0">
      <root>
        <mxCell id="0" />
        <mxCell id="1" parent="0" />
        <mxCell id="BavURsiblsrlNDab91G2-20" value="APP" style="fillColor=none;strokeColor=#5A6C86;verticalAlign=top;fontStyle=0;fontColor=#5A6C86;whiteSpace=wrap;html=1;rounded=1;strokeWidth=2;dashed=1;" parent="1" vertex="1">
          <mxGeometry x="387.5" y="69" width="320" height="320" as="geometry" />
        </mxCell>
        <mxCell id="BavURsiblsrlNDab91G2-15" value="" style="edgeStyle=orthogonalEdgeStyle;html=1;endArrow=block;elbow=vertical;startArrow=block;startFill=1;endFill=1;strokeColor=#545B64;rounded=0;entryX=0.5;entryY=1.5;entryDx=0;entryDy=0;entryPerimeter=0;" parent="1" source="BavURsiblsrlNDab91G2-5" target="BavURsiblsrlNDab91G2-14" edge="1">
          <mxGeometry width="100" relative="1" as="geometry">
            <mxPoint x="272.5" y="439" as="sourcePoint" />
            <mxPoint x="637.5" y="359" as="targetPoint" />
          </mxGeometry>
        </mxCell>
        <mxCell id="BavURsiblsrlNDab91G2-3" value="REDE" style="fillColor=none;strokeColor=#5A6C86;verticalAlign=top;fontStyle=0;fontColor=#5A6C86;whiteSpace=wrap;html=1;rounded=1;strokeWidth=2;dashed=1;" parent="1" vertex="1">
          <mxGeometry x="207.5" y="69" width="130" height="320" as="geometry" />
        </mxCell>
        <mxCell id="BavURsiblsrlNDab91G2-5" value="USUÁRIO" style="sketch=0;outlineConnect=0;fontColor=#232F3E;gradientColor=none;fillColor=#232F3D;strokeColor=none;dashed=0;verticalLabelPosition=bottom;verticalAlign=top;align=center;html=1;fontSize=12;fontStyle=0;aspect=fixed;pointerEvents=1;shape=mxgraph.aws4.users;" parent="1" vertex="1">
          <mxGeometry x="243.5" y="609" width="58" height="58" as="geometry" />
        </mxCell>
        <mxCell id="BavURsiblsrlNDab91G2-6" value="Auto Scaling group" style="points=[[0,0],[0.25,0],[0.5,0],[0.75,0],[1,0],[1,0.25],[1,0.5],[1,0.75],[1,1],[0.75,1],[0.5,1],[0.25,1],[0,1],[0,0.75],[0,0.5],[0,0.25]];outlineConnect=0;gradientColor=none;html=1;whiteSpace=wrap;fontSize=12;fontStyle=0;container=1;pointerEvents=0;collapsible=0;recursiveResize=0;shape=mxgraph.aws4.groupCenter;grIcon=mxgraph.aws4.group_auto_scaling_group;grStroke=1;strokeColor=#D86613;fillColor=none;verticalAlign=top;align=center;fontColor=#D86613;dashed=1;spacingTop=25;" parent="1" vertex="1">
          <mxGeometry x="527.5" y="109" width="110" height="240" as="geometry" />
        </mxCell>
        <mxCell id="BavURsiblsrlNDab91G2-7" value="EC2" style="sketch=0;points=[[0,0,0],[0.25,0,0],[0.5,0,0],[0.75,0,0],[1,0,0],[0,1,0],[0.25,1,0],[0.5,1,0],[0.75,1,0],[1,1,0],[0,0.25,0],[0,0.5,0],[0,0.75,0],[1,0.25,0],[1,0.5,0],[1,0.75,0]];outlineConnect=0;fontColor=#232F3E;gradientColor=#F78E04;gradientDirection=north;fillColor=#D05C17;strokeColor=#ffffff;dashed=0;verticalLabelPosition=bottom;verticalAlign=top;align=center;html=1;fontSize=12;fontStyle=0;aspect=fixed;shape=mxgraph.aws4.resourceIcon;resIcon=mxgraph.aws4.ec2;" parent="BavURsiblsrlNDab91G2-6" vertex="1">
          <mxGeometry x="27.5" y="70" width="55" height="55" as="geometry" />
        </mxCell>
        <mxCell id="BavURsiblsrlNDab91G2-21" value="EC2 Backup" style="sketch=0;points=[[0,0,0],[0.25,0,0],[0.5,0,0],[0.75,0,0],[1,0,0],[0,1,0],[0.25,1,0],[0.5,1,0],[0.75,1,0],[1,1,0],[0,0.25,0],[0,0.5,0],[0,0.75,0],[1,0.25,0],[1,0.5,0],[1,0.75,0]];outlineConnect=0;fontColor=#232F3E;gradientColor=#F78E04;gradientDirection=north;fillColor=#D05C17;strokeColor=#ffffff;dashed=0;verticalLabelPosition=bottom;verticalAlign=top;align=center;html=1;fontSize=12;fontStyle=0;aspect=fixed;shape=mxgraph.aws4.resourceIcon;resIcon=mxgraph.aws4.ec2;" parent="BavURsiblsrlNDab91G2-6" vertex="1">
          <mxGeometry x="27.5" y="159" width="55" height="55" as="geometry" />
        </mxCell>
        <mxCell id="BavURsiblsrlNDab91G2-11" value="" style="edgeStyle=orthogonalEdgeStyle;html=1;endArrow=block;elbow=vertical;startArrow=block;startFill=1;endFill=1;strokeColor=#545B64;rounded=0;" parent="1" target="BavURsiblsrlNDab91G2-6" edge="1">
          <mxGeometry width="100" relative="1" as="geometry">
            <mxPoint x="301.5" y="138.02702702702697" as="sourcePoint" />
            <mxPoint x="517.5" y="139" as="targetPoint" />
            <Array as="points">
              <mxPoint x="480" y="138" />
              <mxPoint x="480" y="138" />
            </Array>
          </mxGeometry>
        </mxCell>
        <mxCell id="BavURsiblsrlNDab91G2-14" value="DNS" style="sketch=0;outlineConnect=0;fontColor=#232F3E;gradientColor=none;fillColor=#232F3D;strokeColor=none;dashed=0;verticalLabelPosition=bottom;verticalAlign=top;align=center;html=1;fontSize=12;fontStyle=0;aspect=fixed;pointerEvents=1;shape=mxgraph.aws4.internet;" parent="1" vertex="1">
          <mxGeometry x="240" y="279" width="65" height="40" as="geometry" />
        </mxCell>
        <mxCell id="BavURsiblsrlNDab91G2-16" value="" style="edgeStyle=orthogonalEdgeStyle;html=1;endArrow=block;elbow=vertical;startArrow=block;startFill=1;endFill=1;strokeColor=#545B64;rounded=0;" parent="1" edge="1">
          <mxGeometry width="100" relative="1" as="geometry">
            <mxPoint x="272.5" y="276" as="sourcePoint" />
            <mxPoint x="272.5" y="206" as="targetPoint" />
            <Array as="points" />
          </mxGeometry>
        </mxCell>
        <mxCell id="BavURsiblsrlNDab91G2-17" value="" style="edgeStyle=orthogonalEdgeStyle;html=1;endArrow=block;elbow=vertical;startArrow=block;startFill=1;endFill=1;strokeColor=#545B64;rounded=0;" parent="1" source="BavURsiblsrlNDab91G2-18" target="BavURsiblsrlNDab91G2-14" edge="1">
          <mxGeometry width="100" relative="1" as="geometry">
            <mxPoint x="377.5" y="349" as="sourcePoint" />
            <mxPoint x="377.5" y="279" as="targetPoint" />
            <Array as="points">
              <mxPoint x="387.5" y="299" />
              <mxPoint x="387.5" y="299" />
            </Array>
          </mxGeometry>
        </mxCell>
        <mxCell id="BavURsiblsrlNDab91G2-18" value="CloudFront" style="sketch=0;points=[[0,0,0],[0.25,0,0],[0.5,0,0],[0.75,0,0],[1,0,0],[0,1,0],[0.25,1,0],[0.5,1,0],[0.75,1,0],[1,1,0],[0,0.25,0],[0,0.5,0],[0,0.75,0],[1,0.25,0],[1,0.5,0],[1,0.75,0]];outlineConnect=0;fontColor=#232F3E;gradientColor=#945DF2;gradientDirection=north;fillColor=#5A30B5;strokeColor=#ffffff;dashed=0;verticalLabelPosition=bottom;verticalAlign=top;align=center;html=1;fontSize=12;fontStyle=0;aspect=fixed;shape=mxgraph.aws4.resourceIcon;resIcon=mxgraph.aws4.cloudfront;" parent="1" vertex="1">
          <mxGeometry x="427.5" y="268" width="55" height="55" as="geometry" />
        </mxCell>
        <mxCell id="BavURsiblsrlNDab91G2-19" value="Elastic Load&lt;br&gt;Balancing" style="sketch=0;points=[[0,0,0],[0.25,0,0],[0.5,0,0],[0.75,0,0],[1,0,0],[0,1,0],[0.25,1,0],[0.5,1,0],[0.75,1,0],[1,1,0],[0,0.25,0],[0,0.5,0],[0,0.75,0],[1,0.25,0],[1,0.5,0],[1,0.75,0]];outlineConnect=0;fontColor=#232F3E;gradientColor=#945DF2;gradientDirection=north;fillColor=#5A30B5;strokeColor=#ffffff;dashed=0;verticalLabelPosition=bottom;verticalAlign=top;align=center;html=1;fontSize=12;fontStyle=0;aspect=fixed;shape=mxgraph.aws4.resourceIcon;resIcon=mxgraph.aws4.elastic_load_balancing;" parent="1" vertex="1">
          <mxGeometry x="245" y="109" width="55" height="55" as="geometry" />
        </mxCell>
        <mxCell id="BavURsiblsrlNDab91G2-24" value="DADOS" style="fillColor=none;strokeColor=#5A6C86;verticalAlign=top;fontStyle=0;fontColor=#5A6C86;whiteSpace=wrap;html=1;rounded=1;strokeWidth=2;dashed=1;" parent="1" vertex="1">
          <mxGeometry x="757.5" y="69" width="210" height="320" as="geometry" />
        </mxCell>
        <mxCell id="BavURsiblsrlNDab91G2-28" value="AWS Cloud" style="points=[[0,0],[0.25,0],[0.5,0],[0.75,0],[1,0],[1,0.25],[1,0.5],[1,0.75],[1,1],[0.75,1],[0.5,1],[0.25,1],[0,1],[0,0.75],[0,0.5],[0,0.25]];outlineConnect=0;gradientColor=none;html=1;whiteSpace=wrap;fontSize=12;fontStyle=0;container=1;pointerEvents=0;collapsible=0;recursiveResize=0;shape=mxgraph.aws4.group;grIcon=mxgraph.aws4.group_aws_cloud_alt;strokeColor=#232F3E;fillColor=none;verticalAlign=top;align=left;spacingLeft=30;fontColor=#232F3E;dashed=0;" parent="1" vertex="1">
          <mxGeometry x="170" y="29" width="827.5" height="560" as="geometry" />
        </mxCell>
        <mxCell id="BavURsiblsrlNDab91G2-30" value="CodePipeline" style="points=[[0,0],[0.25,0],[0.5,0],[0.75,0],[1,0],[1,0.25],[1,0.5],[1,0.75],[1,1],[0.75,1],[0.5,1],[0.25,1],[0,1],[0,0.75],[0,0.5],[0,0.25]];outlineConnect=0;gradientColor=none;html=1;whiteSpace=wrap;fontSize=12;fontStyle=0;container=1;pointerEvents=0;collapsible=0;recursiveResize=0;shape=mxgraph.aws4.group;grIcon=mxgraph.aws4.group_vpc;strokeColor=#3537bc;fillColor=none;verticalAlign=top;align=left;spacingLeft=30;fontColor=#AAB7B8;dashed=0;" parent="BavURsiblsrlNDab91G2-28" vertex="1">
          <mxGeometry x="300" y="410" width="210" height="130" as="geometry" />
        </mxCell>
        <mxCell id="BavURsiblsrlNDab91G2-25" value="" style="sketch=0;points=[[0,0,0],[0.25,0,0],[0.5,0,0],[0.75,0,0],[1,0,0],[0,1,0],[0.25,1,0],[0.5,1,0],[0.75,1,0],[1,1,0],[0,0.25,0],[0,0.5,0],[0,0.75,0],[1,0.25,0],[1,0.5,0],[1,0.75,0]];outlineConnect=0;fontColor=#232F3E;gradientColor=#4D72F3;gradientDirection=north;fillColor=#3334B9;strokeColor=#ffffff;dashed=0;verticalLabelPosition=bottom;verticalAlign=top;align=center;html=1;fontSize=12;fontStyle=0;aspect=fixed;shape=mxgraph.aws4.resourceIcon;resIcon=mxgraph.aws4.codepipeline;" parent="BavURsiblsrlNDab91G2-30" vertex="1">
          <mxGeometry width="25" height="25" as="geometry" />
        </mxCell>
        <mxCell id="BavURsiblsrlNDab91G2-26" value="CodeCommit" style="sketch=0;points=[[0,0,0],[0.25,0,0],[0.5,0,0],[0.75,0,0],[1,0,0],[0,1,0],[0.25,1,0],[0.5,1,0],[0.75,1,0],[1,1,0],[0,0.25,0],[0,0.5,0],[0,0.75,0],[1,0.25,0],[1,0.5,0],[1,0.75,0]];outlineConnect=0;fontColor=#232F3E;gradientColor=#4D72F3;gradientDirection=north;fillColor=#3334B9;strokeColor=#ffffff;dashed=0;verticalLabelPosition=bottom;verticalAlign=top;align=center;html=1;fontSize=12;fontStyle=0;aspect=fixed;shape=mxgraph.aws4.resourceIcon;resIcon=mxgraph.aws4.codecommit;" parent="BavURsiblsrlNDab91G2-30" vertex="1">
          <mxGeometry x="25" y="40" width="55" height="55" as="geometry" />
        </mxCell>
        <mxCell id="BavURsiblsrlNDab91G2-27" value="CodeDeploy" style="sketch=0;points=[[0,0,0],[0.25,0,0],[0.5,0,0],[0.75,0,0],[1,0,0],[0,1,0],[0.25,1,0],[0.5,1,0],[0.75,1,0],[1,1,0],[0,0.25,0],[0,0.5,0],[0,0.75,0],[1,0.25,0],[1,0.5,0],[1,0.75,0]];outlineConnect=0;fontColor=#232F3E;gradientColor=#4D72F3;gradientDirection=north;fillColor=#3334B9;strokeColor=#ffffff;dashed=0;verticalLabelPosition=bottom;verticalAlign=top;align=center;html=1;fontSize=12;fontStyle=0;aspect=fixed;shape=mxgraph.aws4.resourceIcon;resIcon=mxgraph.aws4.codedeploy;" parent="BavURsiblsrlNDab91G2-30" vertex="1">
          <mxGeometry x="127.5" y="40" width="55" height="55" as="geometry" />
        </mxCell>
        <mxCell id="BavURsiblsrlNDab91G2-31" value="RDS" style="sketch=0;points=[[0,0,0],[0.25,0,0],[0.5,0,0],[0.75,0,0],[1,0,0],[0,1,0],[0.25,1,0],[0.5,1,0],[0.75,1,0],[1,1,0],[0,0.25,0],[0,0.5,0],[0,0.75,0],[1,0.25,0],[1,0.5,0],[1,0.75,0]];outlineConnect=0;fontColor=#232F3E;gradientColor=#4D72F3;gradientDirection=north;fillColor=#3334B9;strokeColor=#ffffff;dashed=0;verticalLabelPosition=bottom;verticalAlign=top;align=center;html=1;fontSize=12;fontStyle=0;aspect=fixed;shape=mxgraph.aws4.resourceIcon;resIcon=mxgraph.aws4.rds;" parent="BavURsiblsrlNDab91G2-28" vertex="1">
          <mxGeometry x="667.5" y="90" width="55" height="55" as="geometry" />
        </mxCell>
        <mxCell id="BavURsiblsrlNDab91G2-32" value="S3&lt;br&gt;Code" style="sketch=0;points=[[0,0,0],[0.25,0,0],[0.5,0,0],[0.75,0,0],[1,0,0],[0,1,0],[0.25,1,0],[0.5,1,0],[0.75,1,0],[1,1,0],[0,0.25,0],[0,0.5,0],[0,0.75,0],[1,0.25,0],[1,0.5,0],[1,0.75,0]];outlineConnect=0;fontColor=#232F3E;gradientColor=#60A337;gradientDirection=north;fillColor=#277116;strokeColor=#ffffff;dashed=0;verticalLabelPosition=bottom;verticalAlign=top;align=center;html=1;fontSize=12;fontStyle=0;aspect=fixed;shape=mxgraph.aws4.resourceIcon;resIcon=mxgraph.aws4.s3;" parent="BavURsiblsrlNDab91G2-28" vertex="1">
          <mxGeometry x="627.5" y="239" width="55" height="55" as="geometry" />
        </mxCell>
        <mxCell id="BavURsiblsrlNDab91G2-33" value="S3&lt;br&gt;Arquivos" style="sketch=0;points=[[0,0,0],[0.25,0,0],[0.5,0,0],[0.75,0,0],[1,0,0],[0,1,0],[0.25,1,0],[0.5,1,0],[0.75,1,0],[1,1,0],[0,0.25,0],[0,0.5,0],[0,0.75,0],[1,0.25,0],[1,0.5,0],[1,0.75,0]];outlineConnect=0;fontColor=#232F3E;gradientColor=#60A337;gradientDirection=north;fillColor=#277116;strokeColor=#ffffff;dashed=0;verticalLabelPosition=bottom;verticalAlign=top;align=center;html=1;fontSize=12;fontStyle=0;aspect=fixed;shape=mxgraph.aws4.resourceIcon;resIcon=mxgraph.aws4.s3;" parent="BavURsiblsrlNDab91G2-28" vertex="1">
          <mxGeometry x="717.5" y="239" width="55" height="55" as="geometry" />
        </mxCell>
        <mxCell id="BavURsiblsrlNDab91G2-40" value="" style="edgeStyle=orthogonalEdgeStyle;html=1;endArrow=block;elbow=vertical;startArrow=block;startFill=1;endFill=1;strokeColor=#545B64;rounded=0;" parent="BavURsiblsrlNDab91G2-28" target="BavURsiblsrlNDab91G2-30" edge="1">
          <mxGeometry width="100" relative="1" as="geometry">
            <mxPoint x="658.5" y="330" as="sourcePoint" />
            <mxPoint x="187.5" y="420" as="targetPoint" />
            <Array as="points">
              <mxPoint x="659" y="480" />
            </Array>
          </mxGeometry>
        </mxCell>
        <mxCell id="BavURsiblsrlNDab91G2-42" value="" style="edgeStyle=orthogonalEdgeStyle;html=1;endArrow=block;elbow=vertical;startArrow=block;startFill=1;endFill=1;strokeColor=#545B64;rounded=0;" parent="BavURsiblsrlNDab91G2-28" source="BavURsiblsrlNDab91G2-31" edge="1">
          <mxGeometry width="100" relative="1" as="geometry">
            <mxPoint x="627.5" y="237.95999999999998" as="sourcePoint" />
            <mxPoint x="467.5" y="190" as="targetPoint" />
            <Array as="points">
              <mxPoint x="568" y="120" />
              <mxPoint x="568" y="190" />
              <mxPoint x="468" y="190" />
            </Array>
          </mxGeometry>
        </mxCell>
        <mxCell id="BavURsiblsrlNDab91G2-29" value="Corporate data center" style="points=[[0,0],[0.25,0],[0.5,0],[0.75,0],[1,0],[1,0.25],[1,0.5],[1,0.75],[1,1],[0.75,1],[0.5,1],[0.25,1],[0,1],[0,0.75],[0,0.5],[0,0.25]];outlineConnect=0;gradientColor=none;html=1;whiteSpace=wrap;fontSize=12;fontStyle=0;container=1;pointerEvents=0;collapsible=0;recursiveResize=0;shape=mxgraph.aws4.group;grIcon=mxgraph.aws4.group_corporate_data_center;strokeColor=#5A6C86;fillColor=none;verticalAlign=top;align=left;spacingLeft=30;fontColor=#5A6C86;dashed=0;" parent="1" vertex="1">
          <mxGeometry x="489.5" y="599" width="170" height="221" as="geometry" />
        </mxCell>
        <mxCell id="BavURsiblsrlNDab91G2-45" style="edgeStyle=orthogonalEdgeStyle;rounded=0;orthogonalLoop=1;jettySize=auto;html=1;" parent="BavURsiblsrlNDab91G2-29" source="BavURsiblsrlNDab91G2-13" edge="1">
          <mxGeometry relative="1" as="geometry">
            <mxPoint x="80.5" y="131" as="targetPoint" />
            <Array as="points">
              <mxPoint x="81" y="141" />
              <mxPoint x="81" y="141" />
            </Array>
          </mxGeometry>
        </mxCell>
        <mxCell id="BavURsiblsrlNDab91G2-13" value="Código Fonte" style="sketch=0;outlineConnect=0;fontColor=#232F3E;gradientColor=none;fillColor=#232F3D;strokeColor=none;dashed=0;verticalLabelPosition=bottom;verticalAlign=top;align=center;html=1;fontSize=12;fontStyle=0;aspect=fixed;pointerEvents=1;shape=mxgraph.aws4.source_code;" parent="BavURsiblsrlNDab91G2-29" vertex="1">
          <mxGeometry x="64.9" y="145" width="40.2" height="55" as="geometry" />
        </mxCell>
        <mxCell id="BavURsiblsrlNDab91G2-44" value="Repositório&lt;br&gt;GitHub" style="dashed=0;outlineConnect=0;html=1;align=center;labelPosition=center;verticalLabelPosition=bottom;verticalAlign=top;shape=mxgraph.weblogos.github" parent="BavURsiblsrlNDab91G2-29" vertex="1">
          <mxGeometry x="57.5" y="40" width="55" height="55" as="geometry" />
        </mxCell>
        <mxCell id="BavURsiblsrlNDab91G2-36" value="" style="edgeStyle=orthogonalEdgeStyle;html=1;endArrow=block;elbow=vertical;startArrow=block;startFill=1;endFill=1;strokeColor=#545B64;rounded=0;" parent="1" edge="1">
          <mxGeometry width="100" relative="1" as="geometry">
            <mxPoint x="914.5" y="359" as="sourcePoint" />
            <mxPoint x="455.5" y="349" as="targetPoint" />
            <Array as="points">
              <mxPoint x="914.5" y="359" />
              <mxPoint x="914.5" y="409" />
              <mxPoint x="455.5" y="409" />
            </Array>
          </mxGeometry>
        </mxCell>
        <mxCell id="BavURsiblsrlNDab91G2-41" value="" style="edgeStyle=orthogonalEdgeStyle;html=1;endArrow=block;elbow=vertical;startArrow=block;startFill=1;endFill=1;strokeColor=#545B64;rounded=0;exitX=0;exitY=0.5;exitDx=0;exitDy=0;exitPerimeter=0;" parent="1" source="BavURsiblsrlNDab91G2-32" target="BavURsiblsrlNDab91G2-6" edge="1">
          <mxGeometry width="100" relative="1" as="geometry">
            <mxPoint x="756" y="268" as="sourcePoint" />
            <mxPoint x="607.5" y="418" as="targetPoint" />
            <Array as="points">
              <mxPoint x="737.5" y="296" />
              <mxPoint x="737.5" y="229" />
            </Array>
          </mxGeometry>
        </mxCell>
        <mxCell id="BavURsiblsrlNDab91G2-43" value="" style="edgeStyle=orthogonalEdgeStyle;html=1;endArrow=block;elbow=vertical;startArrow=block;startFill=1;endFill=1;strokeColor=#545B64;rounded=0;" parent="1" source="BavURsiblsrlNDab91G2-30" edge="1">
          <mxGeometry width="100" relative="1" as="geometry">
            <mxPoint x="924.5" y="369" as="sourcePoint" />
            <mxPoint x="454.5" y="349" as="targetPoint" />
            <Array as="points">
              <mxPoint x="454.5" y="499" />
            </Array>
          </mxGeometry>
        </mxCell>
        <mxCell id="BavURsiblsrlNDab91G2-46" value="" style="edgeStyle=orthogonalEdgeStyle;html=1;endArrow=block;elbow=vertical;startArrow=block;startFill=1;endFill=1;strokeColor=#545B64;rounded=0;" parent="1" source="BavURsiblsrlNDab91G2-30" target="BavURsiblsrlNDab91G2-44" edge="1">
          <mxGeometry width="100" relative="1" as="geometry">
            <mxPoint x="736" y="479" as="sourcePoint" />
            <mxPoint x="587.5" y="629" as="targetPoint" />
            <Array as="points" />
          </mxGeometry>
        </mxCell>
      </root>
    </mxGraphModel>
  </diagram>
</mxfile>
